<svg viewBox="279.661 253.574 514.815 99.112" width="514.815" height="99.112" xmlns="http://www.w3.org/2000/svg">
	<defs>
	</defs>
	<g style="font-style:normal;font-weight:400;font-size:72px;line-height:1;font-family:&quot;Brandmark Sans 11&quot;;font-variant-ligatures:normal;text-align:center;text-anchor:middle" strokeWidth="0" stroke-miterlimit="2" transform="matrix(1, 0, 0, 1, 25.068691, -80.870613)">
		<path style="font-style:normal;font-weight:400;font-size:72px;line-height:1;font-family:&quot;Brandmark Sans 11&quot;;font-variant-ligatures:normal;text-align:center;text-anchor:middle" d="M355.177 1.163h41.184v-16.086h-10.466c4.167-6.008 6.59-13.276 6.59-21.222 0-9.594-3.586-18.315-9.594-25.002l-2.616-2.616c-5.33-4.748-12.016-8.043-19.38-9.206l-1.842-.194c-1.26-.194-2.52-.194-3.78-.194-20.156 0-36.532 15.893-37.308 35.661v3.101c.776 19.866 17.152 35.758 37.212 35.758zm0-16.086c-3.586 0-7.074-.872-10.078-2.52-.582-.387-1.163-.678-1.648-1.066a7.39 7.39 0 0 1-1.647-1.26l-1.55-1.356-.097-.097-1.26-1.357-.097-.097-1.066-1.453-.097-.194-.969-1.55-.097-.194-.775-1.648-.097-.29-.678-1.648-.097-.29-.388-1.745-.097-.194-.29-1.938v-.193c-.097-.679-.097-1.357-.097-2.132 0-.679 0-1.357.096-2.035v-.194l.291-1.938.097-.194.388-1.841.097-.194.678-1.744.097-.194.775-1.648.097-.193.969-1.55.097-.195 1.066-1.453.097-.097 1.26-1.454.096-.097 1.454-1.26a19.003 19.003 0 0 1 1.647-1.26c.582-.387 1.163-.774 1.745-1.065 3.004-1.647 6.492-2.52 10.078-2.52 11.725 0 21.222 9.497 21.222 21.126 0 11.725-9.497 21.222-21.222 21.222z" fill="#b8b8b8" transform="matrix(1.33 0 0 1.33 -168.301 432.009)">
		</path>
		<path style="font-style:normal;font-weight:400;font-size:72px;line-height:1;font-family:&quot;Brandmark Sans 11&quot;;font-variant-ligatures:normal;text-align:center;text-anchor:middle" d="M467.597-72.097h-15.989v42.25c0 8.237-6.686 14.827-14.73 14.827-8.14 0-14.729-6.59-14.826-14.73v-42.347h-15.99v42.25C406.063-12.888 419.824.97 436.88.97c2.713 0 5.426-.388 7.849-1.066 1.647-.388 3.295-1.066 4.748-1.647 3.101-1.454 5.911-3.295 8.237-5.524 1.163-.969 2.035-2.035 2.907-3.1.872-1.067 1.744-2.133 2.423-3.392 2.325-3.683 3.682-7.85 4.36-12.307.097-1.163.194-2.423.194-3.78z" fill="#a5a5a4" transform="matrix(1.33 0 0 1.33 -168.301 432.009)">
		</path>
		<path style="font-style:normal;font-weight:400;font-size:72px;line-height:1;font-family:&quot;Brandmark Sans 11&quot;;font-variant-ligatures:normal;text-align:center;text-anchor:middle" d="m549.682 0-30.428-54.751L509.758-72l-9.11 16.28L469.737 0h19.187l21.32-38.471L531.657 0Z" fill="#929291" transform="matrix(1.33 0 0 1.33 -168.301 432.009)">
		</path>
		<path style="font-style:normal;font-weight:400;font-size:72px;line-height:1;font-family:&quot;Brandmark Sans 11&quot;;font-variant-ligatures:normal;text-align:center;text-anchor:middle" d="M558.635-.097h15.99v-72h-15.99z" fill="#807f7d" transform="matrix(1.33 0 0 1.33 -168.301 432.009)">
		</path>
		<path style="font-style:normal;font-weight:400;font-size:72px;line-height:1;font-family:&quot;Brandmark Sans 11&quot;;font-variant-ligatures:normal;text-align:center;text-anchor:middle" d="M642.798-21.803c-.097-2.423-.581-5.136-1.744-7.753-1.066-2.52-2.907-4.942-4.942-6.59-1.938-1.744-4.07-2.906-6.008-3.876-3.974-1.744-7.656-2.616-11.048-3.488-3.294-.97-6.492-1.744-9.206-2.81-.484-.097-.872-.291-1.356-.485-.097-.097-.29-.097-.388-.194l-1.066-.484s0-.097-.097-.097l-.581-.29c-.388-.195-.678-.485-.97-.68-.484-.387-.774-.677-.968-.968-.29-.485-.485-.872-.582-1.454-.096-.581-.096-1.647 0-2.229.194-.678.388-1.065.776-1.453.29-.388.775-.775 1.55-1.163 1.357-.775 3.78-1.357 6.299-1.454.581-.096 1.26-.096 1.938-.096h.872c.29 0 .485.096.775.096 1.066.097 2.035.291 3.004.679 1.842.678 3.489 1.841 4.555 3.198 1.066 1.356 1.647 2.713 1.647 4.263h16.086c.097-5.232-1.84-10.562-5.039-14.438-3.197-3.973-7.364-6.687-11.822-8.237a29.847 29.847 0 0 0-6.977-1.454c-.581-.097-1.163-.097-1.744-.097h-1.648c-.969 0-2.035.097-3.1.194-2.326.29-4.749.678-7.268 1.55-1.842.582-3.78 1.454-5.62 2.52a20.619 20.619 0 0 0-5.912 5.718c-1.647 2.325-2.713 5.135-3.004 7.849-.194 1.356-.194 2.616-.194 3.876.097 1.26.29 2.616.581 3.973.582 2.616 2.035 5.427 3.877 7.462 1.84 2.132 3.973 3.585 5.91 4.651 2.036 1.066 3.974 1.841 5.815 2.52 3.682 1.26 7.074 2.035 10.175 2.907 3.101.872 6.008 1.938 8.043 3.198 1.066.581 1.841 1.26 2.326 1.84.484.582.678 1.067.775 1.648.194.485.29 1.163.29 2.132 0 .388 0 .581-.096.872-.097.194-.097.485-.194.679-.194.387-.581.872-1.066 1.356-.581.485-1.357.97-2.229 1.454-1.84.872-4.263 1.453-6.783 1.647-.581 0-1.26.097-1.841.097-.582 0-1.163-.097-1.648-.097-1.066-.097-2.131-.388-3.1-.678-1.939-.775-3.586-1.841-4.749-3.198-1.066-1.26-1.647-2.616-1.647-4.07h-16.086c0 2.616.387 5.33 1.356 7.85.97 2.422 2.23 4.65 3.877 6.589 3.197 3.973 7.364 6.686 11.725 8.237 2.229.775 4.458 1.356 6.783 1.55 1.163.194 2.326.194 3.489.194.969 0 2.035 0 3.1-.097 4.265-.388 8.528-1.357 12.792-3.489 2.035-1.066 4.167-2.422 6.008-4.263a19.605 19.605 0 0 0 4.845-6.784 15.694 15.694 0 0 0 1.163-4.167c.194-.678.194-1.453.291-2.131z" fill="#6d6c6a" transform="matrix(1.33 0 0 1.33 -168.301 432.009)">
		</path>
		<path style="font-style:normal;font-weight:400;font-size:72px;line-height:1;font-family:&quot;Brandmark Sans 11&quot;;font-variant-ligatures:normal;text-align:center;text-anchor:middle" d="M705.044-13.954h-33.529v-15.02h27.909v-13.858h-27.909V-58.24h33.529v-13.857h-49.518v72h49.518z" fill="#5a5956" transform="matrix(1.33 0 0 1.33 -168.301 432.009)">
		</path>
	</g>
</svg>
