<svg viewBox="279.661 253.574 514.815 99.112" width="514.815" height="99.112" xmlns="http://www.w3.org/2000/svg">
	<defs>
	</defs>
	<g style="font-style:normal;font-weight:400;font-size:72px;line-height:1;font-family:&quot;Brandmark Sans 11&quot;;font-variant-ligatures:normal;text-align:center;text-anchor:middle" strokeWidth="0" stroke-miterlimit="2" transform="matrix(1, 0, 0, 1, 25.068691, -80.870613)">
		<path style="font-style:normal;font-weight:400;font-size:72px;line-height:1;font-family:&quot;Brandmark Sans 11&quot;;font-variant-ligatures:normal;text-align:center;text-anchor:middle" d="M355.177 1.163h41.184v-16.086h-10.466c4.167-6.008 6.59-13.276 6.59-21.222 0-9.594-3.586-18.315-9.594-25.002l-2.616-2.616c-5.33-4.748-12.016-8.043-19.38-9.206l-1.842-.194c-1.26-.194-2.52-.194-3.78-.194-20.156 0-36.532 15.893-37.308 35.661v3.101c.776 19.866 17.152 35.758 37.212 35.758zm0-16.086c-3.586 0-7.074-.872-10.078-2.52-.582-.387-1.163-.678-1.648-1.066a7.39 7.39 0 0 1-1.647-1.26l-1.55-1.356-.097-.097-1.26-1.357-.097-.097-1.066-1.453-.097-.194-.969-1.55-.097-.194-.775-1.648-.097-.29-.678-1.648-.097-.29-.388-1.745-.097-.194-.29-1.938v-.193c-.097-.679-.097-1.357-.097-2.132 0-.679 0-1.357.096-2.035v-.194l.291-1.938.097-.194.388-1.841.097-.194.678-1.744.097-.194.775-1.648.097-.193.969-1.55.097-.195 1.066-1.453.097-.097 1.26-1.454.096-.097 1.454-1.26a19.003 19.003 0 0 1 1.647-1.26c.582-.387 1.163-.774 1.745-1.065 3.004-1.647 6.492-2.52 10.078-2.52 11.725 0 21.222 9.497 21.222 21.126 0 11.725-9.497 21.222-21.222 21.222z" fill="#b8b8b8" transform="matrix(1.33 0 0 1.33 -168.301 432.009)">
		</path>
	</g>
</svg>
